<svg width="150" height="56" viewBox="0 0 150 56" fill="none" xmlns="http://www.w3.org/2000/svg"><path d="M9.15694 0.70945H15.5689L24.9343 25.3789H18.2822L17.0273 21.5007H7.87032L6.6204 25.3789H0L9.15694 0.70945ZM15.5328 16.9248L12.4693 6.73764H12.3971L9.33364 16.9248H15.5328Z" fill="white"></path><path d="M28.3456 0.70945H40.7427C46.316 0.70945 49.7267 3.27326 49.7267 8.81777C49.7273 12.0044 47.7059 14.5695 44.6063 15.4701L50.2842 25.3789H43.3521L38.4818 16.5098H34.5442V25.3789H28.3456V0.70945ZM34.5442 11.937H40.2214C42.206 11.9002 43.5288 10.8954 43.5288 8.60932C43.5288 6.32199 42.2054 5.31843 40.2207 5.28224H34.5442V11.937Z" fill="white"></path><path d="M54.6239 25.3789V0.709402H72.8749V5.49002H60.8219V9.99479H72.073V14.7779H60.8219V20.5983H73.9164V25.3789" fill="white"></path><path d="M98.2988 20.5983V25.3789H77.016V20.7712L90.8086 5.49007H78.0998V0.709459H98.3666V5.52502L84.7507 20.5983" fill="white"></path><path d="M122.431 20.5983V25.3789H101.153V20.7712L114.946 5.49007H102.237V0.709459H122.503V5.52502L108.883 20.5983" fill="white"></path><path d="M137.495 -0.000230789C129.431 0.000392914 124.983 5.71404 124.983 13.0254L124.984 13.0285C124.984 20.3386 129.426 26.0548 137.488 26.0566H137.495C145.558 26.0554 150 20.3399 150 13.0285C150.001 5.71529 145.557 0.000392914 137.495 -0.000230789ZM137.495 20.7992H137.489C133.181 20.7973 130.801 17.3885 130.801 13.0279L130.801 13.0266C130.801 8.66604 133.18 5.25845 137.494 5.2572C141.802 5.25845 144.182 8.66667 144.182 13.0279C144.182 17.3891 141.801 20.798 137.495 20.7992Z" fill="white"></path><path d="M118.264 47.398C117.274 49.4313 115.508 50.7413 113.065 50.7426H113.06C108.752 50.7401 106.377 47.3325 106.377 42.9719L106.378 42.97C106.378 38.6088 108.752 35.2006 112.935 35.2006C115.389 35.2006 117.18 36.6616 118.128 38.8946L123.009 36.47C121.186 32.5126 117.753 29.9431 112.653 29.9431H112.655C104.919 29.9431 100.559 35.6574 100.554 42.9681L100.554 42.9719C100.554 50.282 104.996 55.9975 113.06 56H113.065C117.931 55.9994 121.352 53.5148 123.118 49.7278" fill="white"></path><path d="M137.495 29.9431C129.431 29.9444 124.983 35.6574 124.983 42.9681L124.984 42.9713C124.984 50.282 129.426 55.9975 137.488 56H137.495C145.558 55.9988 150 50.2832 150 42.9713C150.001 35.6587 145.557 29.9444 137.495 29.9431ZM137.495 50.7426H137.489C133.181 50.7401 130.801 47.3319 130.801 42.9713L130.801 42.97C130.801 38.6082 133.18 35.2012 137.494 35.2006C141.802 35.2012 144.182 38.61 144.182 42.9713C144.182 47.3319 141.801 50.7413 137.495 50.7426Z" fill="white"></path><path d="M99.3144 55.3214L94.6786 49.8649L98.5273 45.5143L94.9032 42.3551L91.543 46.1833L85.7096 39.3095C85.3655 38.8863 85.0582 38.4482 84.7969 37.987C84.5325 37.5308 84.4068 37.0533 84.4068 36.5572C84.4068 35.9131 84.6357 35.3739 85.0936 34.9408C85.5584 34.5076 86.1619 34.2898 86.9066 34.2898C87.4802 34.2898 88.0165 34.4639 88.5161 34.8097C89.0114 35.1592 89.4587 35.7533 89.86 36.5946L93.6683 34.2518C93.0952 33.0647 92.2404 32.0474 91.1106 31.2055C89.9757 30.363 88.5006 29.9429 86.6826 29.9429C85.5117 29.9429 84.4584 30.1158 83.5264 30.4622C82.5944 30.808 81.7968 31.2735 81.1355 31.8558C80.4747 32.4375 79.9689 33.119 79.6037 33.9004C79.246 34.6805 79.0624 35.5156 79.0624 36.4086C79.063 37.1282 79.1931 37.889 79.4531 38.6941C79.7188 39.5005 80.1356 40.2874 80.708 41.0551C78.9896 42.0967 77.7447 43.2794 76.9738 44.605C76.1986 45.9293 75.8123 47.3242 75.8123 48.7865C75.8129 49.8518 76.0051 50.8248 76.3909 51.7023C76.776 52.5835 77.3328 53.338 78.0514 53.969C78.7762 54.6031 79.6404 55.0986 80.6508 55.4581C81.6624 55.8157 82.7873 55.9961 84.0316 55.9961C85.4022 55.9961 86.631 55.7845 87.7092 55.3645C88.793 54.9439 89.8967 54.2748 91.0166 53.358L92.7051 55.3214H99.3144ZM86.366 50.904C85.829 51.1768 85.1982 51.3122 84.4789 51.3122C83.4331 51.3122 82.6044 51.0401 81.9947 50.4971C81.3862 49.9504 81.0782 49.2308 81.0782 48.3384C81.0782 47.6225 81.2555 46.9529 81.6046 46.3331C81.9542 45.7128 82.5733 45.0805 83.4692 44.439L88.0327 49.7532C87.4541 50.2481 86.9016 50.6319 86.366 50.904Z" fill="#ADDFEA"></path></svg>